<svg width="24" height="25" viewBox="0 0 24 25" fill="none" xmlns="http://www.w3.org/2000/svg">
<path d="M15.0013 8.80371V9.17887C15.0013 10.8364 13.6576 12.1801 12 12.1801V12.1801C10.3425 12.1801 8.99878 10.8364 8.99878 9.17887V8.80371" stroke="#323232" stroke-width="1.5" stroke-linecap="round" stroke-linejoin="round"/>
<path d="M15.0013 8.8041V9.17926C15.0013 10.8368 16.345 12.1805 18.0026 12.1805H18.2509C19.7713 12.1805 21.0038 10.948 21.0038 9.42758V9.42758C21.0038 9.01961 20.893 8.61932 20.6831 8.26949L18.2831 4.26959C17.8763 3.5916 17.1436 3.17676 16.353 3.17676H7.6472C6.85653 3.17676 6.12384 3.5916 5.71704 4.26959L3.31711 8.26948C3.10721 8.61931 2.99634 9.0196 2.99634 9.42757V9.42757C2.99634 10.948 4.22886 12.1805 5.74926 12.1805H5.99759C7.65513 12.1805 8.99884 10.8368 8.99884 9.17926V8.8041" stroke="#323232" stroke-width="1.5" stroke-linecap="round" stroke-linejoin="round"/>
<path d="M19.8784 11.6447V18.9332C19.8784 20.1764 18.8706 21.1841 17.6275 21.1841H6.37276C5.12961 21.1841 4.12183 20.1764 4.12183 18.9332V11.6445" stroke="#323232" stroke-width="1.5" stroke-linecap="round" stroke-linejoin="round"/>
<path d="M13.6884 17.0261H10.312" stroke="#323232" stroke-width="1.5" stroke-linecap="round" stroke-linejoin="round"/>
</svg>
